<?xml version="1.0" encoding="UTF-8" standalone="yes"?>
<svg version="1.2" viewBox="0 0 790 790" width="790" height="790" baseProfile="tiny-ps" xmlns="http://www.w3.org/2000/svg">
  <title>bimi-svg-tiny-12-ps</title>
  <defs id="defs1"/>
  <path class="cls-1" d="m 764.22731,534.56835 c -1.51103,0.008 -3.01798,0.77565 -3.95148,2.28486 -9.92319,15.53118 -41.06638,50.06437 -58.62292,50.16081 -9.62167,0.0529 -12.70478,-9.74897 -12.75558,-18.99814 -0.0259,-4.72298 0.7072,-9.44311 1.8211,-12.66123 15.64523,-3.86021 36.20007,-8.31671 44.61322,-23.64981 1.67619,-3.22122 2.60632,-6.62107 2.58769,-10.02274 -0.0675,-12.27132 -11.79743,-17.30252 -20.86387,-17.25272 -18.54051,0.10185 -34.60023,16.79128 -42.90394,35.42013 -10.89118,14.60873 -42.79445,51.51469 -51.39702,51.56194 -10.76025,0.0591 -11.17087,-40.14844 -26.5081,-49.31364 13.19445,-3.46723 41.27794,-11.54959 41.18459,-28.54388 -0.0249,-4.53323 -2.87488,-7.72254 -8.91918,-7.68934 -12.27131,0.0674 -27.69462,9.78111 -41.04668,19.1039 2.22658,-7.94034 4.26358,-14.5653 5.38066,-17.2071 87.21036,-1.04835 130.86025,-61.88748 130.62593,-104.5419 -0.0654,-11.91288 -3.63732,-22.41486 -10.65007,-29.78433 1.22701,-0.54793 2.43245,-1.17305 3.59494,-1.95257 16.92089,-12.17486 43.12722,-52.33885 47.98817,-61.80477 0.56304,-1.13467 0.9314,-1.89577 0.9262,-2.83755 -0.0113,-2.07333 -1.71843,-3.19554 -3.98149,-3.18311 -2.08039,0.0115 -4.52809,0.96669 -6.21651,3.23912 -5.05915,6.63454 -39.5065,58.93274 -46.30285,58.97008 -2.45282,0.0135 -3.21526,-1.873 -3.2329,-5.07788 -0.0548,-10.00119 8.31988,-32.3274 8.23069,-48.56265 -0.0726,-13.2131 -7.09188,-19.21902 -15.39223,-19.17342 -18.12581,0.0996 -32.31909,27.7361 -39.98229,42.69258 4.0749,-14.36746 8.33021,-30.4368 10.51452,-44.79388 0.18042,-1.70188 0.54956,-3.59456 0.54025,-5.28838 -0.0373,-6.79631 -2.91017,-14.14635 -12.53886,-14.09346 -19.62989,0.10783 -49.31985,59.92846 -54.36742,69.95768 2.03369,-8.50858 4.44091,-16.82944 7.40835,-25.52588 l 3.719,-11.34327 c 0.36938,-0.57134 0.36629,-1.1336 0.36424,-1.5061 -0.0187,-3.40167 -4.55418,-5.07061 -9.46692,-5.04362 -4.53322,0.0249 -9.43067,1.55588 -10.55365,4.40155 -0.77632,1.97926 -1.63438,4.42988 -2.51902,7.16178 -9.94962,13.2822 -47.49795,62.76497 -53.74606,62.79929 -1.70084,0.009 -2.47023,-1.87006 -2.48683,-4.8922 -0.0819,-14.91394 16.47998,-59.17877 17.96615,-63.72028 3.15203,-9.63928 -5.74565,-14.69306 -14.21685,-9.92341 -1.49575,1.51934 -3.1831,3.98154 -7.67069,12.31383 -3.65595,-13.00366 -12.56582,-18.99919 -25.74182,-13.45164 -5.27304,2.24995 -10.56667,7.14975 -15.24162,13.36047 -0.64451,0.38308 -1.23195,0.92047 -1.67076,1.64681 -9.92321,15.53117 -41.06642,50.05733 -58.62298,50.15377 -9.62167,0.0529 -12.70473,-9.74194 -12.75557,-18.99814 -0.0259,-4.72298 0.7072,-9.4431 1.8211,-12.66122 15.64523,-3.86023 36.20008,-8.31671 44.61325,-23.64982 1.67621,-3.21419 2.60633,-6.62107 2.58765,-10.02274 -0.0674,-12.27132 -11.79742,-17.30251 -20.86386,-17.25272 -27.18525,0.14933 -49.07204,35.94601 -48.93306,61.24768 0.0912,16.60775 8.29698,32.60864 27.54735,32.5029 2.02414,-0.0111 4.04001,-0.2471 6.05522,-0.60257 -17.33909,16.65429 -35.99718,54.21143 -39.89751,61.97118 2.03368,-8.50857 4.4409,-16.82942 7.41537,-25.52591 l 3.71198,-11.34324 c 0.36937,-0.57133 0.36628,-1.13359 0.36423,-1.50609 -0.0187,-3.40167 -4.55418,-5.07061 -9.46692,-5.04363 -4.53321,0.0249 -9.43067,1.55589 -10.55365,4.40156 -0.77632,1.97926 -1.63438,4.42988 -2.51902,7.16178 -9.94962,13.28221 -47.49795,62.76497 -53.74605,62.79929 -1.70084,0.009 -2.47024,-1.87006 -2.48684,-4.8922 -0.0819,-14.91394 16.47998,-59.17877 17.96615,-63.72029 0.4631,-1.42229 0.63869,-2.72352 0.62506,-3.92531 2.57832,2.35443 5.69229,3.70084 9.26264,3.68123 3.30328,-0.0181 5.88632,-1.92298 5.85909,-6.8779 -0.39284,-71.51942 43.4023,-134.06726 59.31857,-201.18507 l 30.87578,-7.71816 c 11.55294,-2.89593 24.27828,-6.03727 36.54959,-6.10467 8.49715,-0.0467 12.05753,3.23714 12.07958,7.25027 0.0221,4.01313 -3.0234,8.74595 -7.95755,12.55437 -3.2903,2.37962 -4.4568,4.97953 -4.44383,7.34102 0.0169,3.06432 2.39134,5.41986 5.46268,5.40299 1.65164,-0.009 3.06042,-0.72669 4.71391,-1.67758 10.34628,-7.60539 15.95083,-17.32139 15.90287,-26.05047 -0.0635,-11.56849 -9.54915,-20.01379 -29.60776,-19.90361 -43.18857,0.23723 -123.24516,35.61544 -152.03989,35.77361 l -2.12253,0.0117 c -3.07134,0.0169 -5.4121,3.804 -5.39137,7.57817 0.0169,3.07134 1.68276,5.65569 5.46395,5.63492 18.40698,-0.10111 44.56677,-7.80039 62.94653,-12.8564 -5.98617,22.13034 -22.12721,58.56315 -35.38238,94.48109 0.32937,-2.73588 0.48326,-5.42862 0.46881,-8.05718 -0.12959,-23.59383 -14.01259,-41.83373 -40.62855,-41.68753 -2.07333,0.0114 -3.96393,0.0218 -6.03622,0.22293 -19.2825,1.93331 -38.33239,16.78366 -55.39951,38.1666 -2.5434,-8.79268 -11.65281,-15.28614 -28.32381,-15.19457 -43.1956,0.23727 -123.720538,36.08192 -152.747189,36.24137 l -1.890598,0.0104 c -2.832384,0.0155 -5.1687,3.33177 -5.147968,7.10594 0.01945,3.54223 1.685375,6.13361 6.169398,6.10898 18.639449,-1.28317 43.854327,-8.26739 62.243707,-12.85255 -4.16654,15.59794 -13.71294,38.31013 -23.49367,63.14619 -9.194038,2.41207 -44.063492,13.69451 -63.651212,13.8021 -8.729079,0.0479 -14.173571,-2.04474 -14.203414,-7.47757 -0.02073,-3.77417 3.02077,-9.22388 7.956265,-12.7863 3.290304,-2.37963 4.456802,-4.97954 4.445143,-7.10207 -0.01683,-3.06431 -2.389979,-5.17387 -5.693255,-5.15573 -1.412677,0.008 -3.070069,0.2488 -4.476261,1.43731 -10.57949,7.37473 -15.957851,17.32143 -15.911216,25.81155 0.06354,11.56849 9.550426,20.24573 29.377105,20.13682 15.103699,-0.083 34.676397,-4.20372 54.942855,-9.97998 -12.798368,33.35004 -24.606971,75.43103 -24.463052,101.63233 0.0168,3.06431 0.265637,6.13438 0.757804,8.72517 0.734484,4.48013 5.467847,6.34479 10.42276,6.31756 5.66476,-0.0311 12.264058,-2.66789 12.479158,-5.73348 2.14758,-38.95648 16.2925,-84.35367 30.73085,-119.83531 28.27716,-8.65273 54.42603,-17.06183 68.11706,-17.13704 l 1.18074,-0.006 c 3.06431,-0.0169 5.63827,-3.57331 5.61755,-7.34748 -0.0155,-2.83239 -1.91469,-5.65442 -5.68886,-5.63369 -18.17504,0.0998 -43.85692,7.79649 -62.24629,12.38166 8.38433,-20.58321 16.29652,-41.39576 21.13603,-62.4304 19.32985,-4.8293 48.77687,-14.1913 67.4228,-14.29372 8.73611,-0.048 12.29649,3.23583 12.31981,7.48089 0.0233,4.24506 -3.25401,8.98618 -8.1882,12.78757 -3.05837,2.37836 -4.45676,4.98657 -4.44514,7.10207 0.013,2.36852 1.44321,4.27241 3.59806,5.02667 -26.10706,45.44884 -43.76056,102.11084 -43.5746,135.96589 0.0996,18.12585 5.25828,29.61012 16.96733,29.54581 l 1.13155,-0.006 c 8.40304,-0.54517 38.74031,-26.97013 59.8011,-48.07982 -0.9616,4.07476 -1.48803,8.0417 -1.46792,11.70342 0.0653,11.89179 6.89688,18.27124 13.50343,18.23495 10.57049,-0.058 23.14462,-14.09267 32.50993,-27.54738 -1.47165,7.18414 -2.3821,14.17543 -2.34685,20.59221 0.0736,13.40286 4.47305,23.56997 16.36485,23.50464 8.41984,-0.0462 32.90034,-26.84668 50.10161,-48.11791 -1.90366,9.14745 -3.23692,18.49559 -3.19487,26.14935 0.042,7.65377 0.45236,14.5394 8.19749,14.49686 3.02215,-0.0166 6.40849,-1.54632 8.0857,-4.57777 5.04671,-8.90467 8.95676,-18.73787 14.20339,-27.07433 5.4169,-10.60758 34.02642,-59.83742 38.7494,-59.86336 0.37953,-0.002 0.57238,0.55913 0.57655,1.31818 0.0207,3.77417 -15.78625,47.2828 -15.64214,73.51925 0.0365,6.65575 1.01085,12.56835 4.20236,15.23569 -35.3144,17.28719 -65.60401,61.34628 -65.36099,105.58909 0.14724,26.80573 11.2414,52.98904 42.00403,52.82007 18.84975,-0.10354 38.69912,-11.43702 50.07575,-25.95705 1.80517,1.07247 3.74134,1.68034 5.68113,1.66969 10.57049,-0.0581 23.14458,-14.09971 32.50993,-27.54739 -1.47166,7.18414 -2.38213,14.1684 -2.34685,20.59221 0.0736,13.40287 4.47305,23.56997 16.36485,23.50465 8.87667,-0.0488 35.6319,-29.86285 52.86592,-51.57002 -1.47297,10.78271 -2.23297,20.85164 -2.18402,29.76346 0.0716,13.02334 1.82237,23.39475 5.63286,29.9876 1.71223,2.06399 3.60101,3.00245 5.30185,2.99311 3.20487,-0.0176 5.8309,-3.05426 5.81329,-6.25914 -0.005,-0.94179 -0.19312,-1.8896 -0.95838,-3.01697 -1.14398,-2.25688 -1.5432,-5.83921 -1.56705,-10.18266 -0.0985,-17.93608 7.09416,-48.17687 8.58323,-53.47045 12.50879,8.61846 14.9419,39.55842 37.08149,48.50352 1.13363,0.37332 2.26622,0.55686 3.39776,0.55065 12.38377,-0.068 32.75274,-20.44998 47.40604,-38.55144 -0.11183,1.39225 -0.20263,2.77735 -0.19525,4.11975 0.0913,16.61477 8.29702,32.61567 27.54739,32.50993 27.93727,-0.15346 55.68478,-34.85075 71.61517,-55.89008 0.93562,-1.13672 1.49866,-2.27139 1.49247,-3.40294 -0.0134,-2.45989 -2.29398,-4.33099 -4.55711,-4.31855 z m -47.67373,-17.86453 c 1.50203,-0.38075 2.82926,-0.57781 4.15059,-0.58507 4.33642,-0.0238 7.37415,2.79196 7.39594,6.7559 0.0682,12.46107 -21.79527,19.18792 -34.05108,22.08068 4.09252,-11.16259 10.62853,-24.03245 22.50455,-28.25151 z M 445.02307,287.64083 c 1.50196,-0.38779 2.82926,-0.58484 4.15057,-0.5921 4.33642,-0.0238 7.37413,2.79196 7.3959,6.75589 0.0685,12.46108 -21.79527,19.18792 -34.05103,22.08771 4.0925,-11.16258 10.62856,-24.03245 22.50456,-28.2515 z M 282.11476,261.55342 c 10.51033,-11.00807 22.56494,-15.98015 33.13542,-16.03821 16.42501,-0.0902 29.70448,11.91876 29.81751,32.49746 0.20117,36.62418 -38.58035,90.64005 -121.63189,92.60033 10.79551,-28.18718 32.0246,-81.35459 58.67896,-109.05958 z m 29.90309,149.16235 c -1.30884,2.27739 -27.16994,36.20523 -33.59376,36.24052 -0.94178,0.005 -1.32444,-0.56203 -1.33269,-2.06608 -0.0757,-13.78239 15.37664,-52.75572 28.77951,-52.82934 2.27012,-0.0124 4.54148,1.47914 6.44871,4.49793 1.90017,3.0118 1.57227,11.13147 -0.30177,14.15697 z m 7.08376,-15.5226 c -3.65594,-13.00365 -12.56581,-18.99918 -25.74182,-13.45164 -6.04436,2.57751 -12.11191,8.61314 -17.25046,16.15478 -0.13284,0.12724 -0.30098,0.22656 -0.42672,0.36782 -4.67758,7.01199 -63.0815,63.77834 -69.86873,64.18812 -1.8906,0.0104 -2.6561,-2.43834 -2.67892,-6.59203 -0.0985,-17.93608 13.40831,-66.90022 16.76126,-75.78856 64.40873,-1.28857 104.60401,-30.80397 122.59019,-62.72762 -5.447,17.92437 -9.07383,34.53145 -9.00153,47.69536 0.0351,6.38164 1.15579,12.0826 3.1628,16.63304 -2.77491,-1.03903 -6.35797,-0.77335 -9.88241,1.20695 -1.49574,1.51933 -3.1831,3.98153 -7.67069,12.31382 z m 277.07891,102.92091 c 15.44405,-40.48441 50.27826,-126.00122 94.07125,-126.24177 2.7129,-0.0149 5.19612,0.37911 7.47717,1.07646 1.20618,0.78759 2.55907,1.41271 4.14944,1.76242 8.58689,4.78139 13.19868,15.2144 13.26988,28.17449 0.20221,36.81395 -35.92323,93.26815 -118.97477,95.22844 z M 612.42157,342.9771 c 5.4169,-10.60758 34.02642,-59.83742 38.7494,-59.86337 0.37953,-0.002 0.57238,0.55914 0.57655,1.31819 0.0207,3.77416 -15.78625,47.2828 -15.64214,73.51924 0.0498,9.05941 1.79315,16.79519 8.58946,16.75786 2.2631,-0.0124 4.52805,-0.96668 5.65025,-2.67374 2.24649,-3.03457 32.84715,-68.51811 42.47585,-68.571 1.70084,-0.009 2.84689,2.62706 2.87076,6.97052 0.057,10.38071 -5.30935,28.90909 -5.22951,43.4435 0.0174,3.17677 0.35777,6.27445 1.04811,9.11718 -2.32819,-0.32458 -4.74715,-0.5362 -7.33354,-0.52199 -20.09375,0.11037 -38.87065,12.19703 -55.4872,31.15971 -0.39879,0.33253 -0.76921,0.7141 -1.0688,1.19368 -0.0557,0.0917 -0.13948,0.19756 -0.1952,0.28924 -3.95966,4.63944 -7.79063,9.67178 -11.49337,15.01969 -13.7648,16.07237 -34.02348,34.78095 -46.9414,34.85191 -9.62166,0.0529 -12.70474,-9.74194 -12.75558,-18.99814 -0.0259,-4.72298 0.70721,-9.4431 1.82111,-12.66122 15.64523,-3.86023 36.20007,-8.31671 44.61325,-23.64982 1.67621,-3.21419 2.60634,-6.62107 2.58765,-10.02274 -0.0297,-5.40472 -2.32181,-9.39835 -5.65451,-12.17737 4.38992,-8.19821 8.081,-16.94783 12.82593,-24.49435 z m -25.27176,31.17648 c 0.85902,0.28345 1.81598,0.48202 2.98268,0.47561 0.23895,-10e-4 0.49159,-0.073 0.73746,-0.0954 2.77434,0.9336 4.55839,3.27833 4.57503,6.30751 0.0684,12.46108 -21.79528,19.18793 -34.05104,22.08771 4.09251,-11.16258 10.62856,-24.03245 22.50457,-28.2515 1.17209,-0.30163 2.21853,-0.44795 3.25833,-0.52395 z M 518.1758,303.09521 c 2.2631,-0.0124 4.53446,1.47918 6.44169,4.49797 1.90017,3.0118 1.57226,11.13147 -0.30178,14.15697 -1.30884,2.27738 -27.16994,36.20523 -33.59375,36.24051 -0.94179,0.005 -1.32444,-0.56203 -1.3327,-2.06607 -0.0757,-13.78239 15.37665,-52.75572 28.77951,-52.82934 z m -42.02564,34.09395 c -0.73975,3.51829 -1.17075,6.94352 -1.15322,10.13434 0.0653,11.89179 6.89688,18.27125 13.50343,18.23496 10.57048,-0.058 23.14461,-14.09268 32.50993,-27.54739 -1.47166,7.18414 -2.3821,14.17543 -2.34686,20.59222 0.0736,13.40286 4.47306,23.56995 16.36485,23.50464 8.41983,-0.0462 32.90034,-26.84669 50.10162,-48.11791 -1.90366,9.14744 -3.23693,18.49559 -3.19489,26.14935 0.005,0.84339 0.0162,1.66566 0.0417,2.47378 -17.38746,1.452 -32.3349,17.18649 -40.32064,34.84367 -7.7838,10.91577 -38.72819,57.32597 -45.13092,57.36114 -2.45286,0.0135 -3.21526,-1.87299 -3.23287,-5.07788 -0.055,-10.00119 8.31983,-32.3274 8.23066,-48.56264 -0.0726,-13.21311 -7.09182,-19.212 -15.39218,-19.1664 -18.12584,0.0996 -32.31912,27.73611 -39.9753,42.69254 4.06787,-14.36742 8.32319,-30.43676 10.51452,-44.79388 0.18042,-1.70188 0.54956,-3.59456 0.54025,-5.28837 -0.0315,-5.72802 -2.13115,-11.7961 -8.54369,-13.54611 9.85589,-6.03535 19.20497,-14.76685 27.4977,-23.87911 z m 20.07499,215.27681 c -1.30888,2.27035 -27.16994,36.20522 -33.59375,36.24051 -0.94179,0.005 -1.32444,-0.56203 -1.33274,-2.0731 -0.0757,-13.77536 15.37665,-52.75572 28.77951,-52.82935 2.26309,-0.0124 4.53449,1.48621 6.44169,4.49797 1.90017,3.01181 1.57226,11.13147 -0.30174,14.164 z m 67.12644,-11.9446 c -10.12405,13.51511 -47.40739,62.61689 -53.62739,62.65105 -1.70083,0.009 -2.47023,-1.87006 -2.48683,-4.8922 -0.0819,-14.91394 16.47998,-59.17877 17.96619,-63.71326 3.15203,-9.63927 -5.74565,-14.69305 -14.21685,-9.9234 -1.49578,1.51231 -3.1831,3.98154 -7.67069,12.31382 -3.65594,-13.00365 -12.56581,-18.99918 -25.74181,-13.45164 -15.25822,6.50079 -30.76864,34.90365 -30.66077,54.54056 0.0221,4.02016 0.86272,7.35406 2.15688,10.08102 -0.40632,0.2412 -0.77029,0.51731 -0.97218,0.86985 -7.86772,10.99355 -21.41474,19.36856 -35.19714,19.44427 -23.03155,0.12651 -30.87956,-19.8404 -30.9926,-40.4191 -0.0622,-11.3225 2.13867,-22.66447 5.30186,-31.55176 13.95162,-37.08146 48.31277,-71.80804 71.90659,-71.93764 3.96393,-0.0218 7.55351,0.90033 10.77684,2.96304 4.92437,3.3677 5.33605,9.22014 8.73772,9.20146 3.02215,-0.0166 6.01445,-4.18686 5.99889,-7.01924 l -0.005,-0.94178 c -4.40052,-10.36389 -15.74479,-14.26563 -26.31527,-14.20757 -6.08647,0.0335 -12.23073,1.05819 -18.31422,2.91199 7.32291,-14.2096 32.05141,-64.95736 40.52747,-65.00391 1.69381,-0.009 2.8469,2.62706 2.87076,6.97051 0.057,10.38072 -5.30935,28.9091 -5.22951,43.44351 0.0602,10.95001 3.32205,21.31312 15.22087,21.24777 3.5844,-0.0197 7.35131,-1.36174 10.74052,-3.65054 9.35305,-6.72841 21.52681,-21.99784 31.38156,-35.91912 0.37061,16.28994 8.60143,31.73544 27.52147,31.63151 11.93396,-0.0656 23.81912,-6.45644 34.77675,-15.36546 -15.90945,31.25157 -27.86309,67.40133 -34.43277,99.74021 z m 60.49118,-24.81238 c 0.94075,-0.19494 1.69875,-0.38887 2.26102,-0.39196 1.13154,-0.006 1.51315,0.37123 1.51624,0.93349 0.004,0.75202 -0.56103,1.50717 -1.49656,2.65092 -8.43518,10.04782 -22.39695,12.01517 -34.27214,15.10264 9.02312,-6.65632 20.87217,-15.78108 31.99144,-18.29509 z" id="path3"/>
</svg>