<?xml version="1.0" encoding="UTF-8"?>
<svg id="Ebene_1" data-name="Ebene 1" xmlns="http://www.w3.org/2000/svg" version="1.1" viewBox="0 0 1440 790">
  <defs>
    <style>
      .cls-1 {
        fill: #1d1d1b;
      }

      .cls-1, .cls-2 {
        stroke-width: 0px;
      }

      .cls-2 {
        fill: #fff;
      }
    </style>
  </defs>
  <g>
    <path class="cls-2" d="M1247.86,602.87c-2.15,0-4.3,1.08-5.64,3.22-14.24,22.02-58.82,70.91-83.8,70.91-13.69,0-18-13.97-18-27.13,0-6.72,1.08-13.43,2.69-18,22.29-5.37,51.57-11.55,63.66-33.3,2.41-4.57,3.76-9.4,3.76-14.24,0-17.46-16.65-24.71-29.55-24.71-26.38,0-49.36,23.62-61.32,50.06-15.61,20.7-61.29,72.96-73.53,72.96-15.31,0-15.58-57.21-37.33-70.37,18.8-4.83,58.82-16.11,58.82-40.29,0-6.45-4.03-11.01-12.63-11.01-17.46,0-39.48,13.7-58.55,26.86,3.23-11.28,6.18-20.69,7.79-24.44,124.09-.81,186.67-87.03,186.67-147.72,0-16.95-5-31.92-14.92-42.46,1.75-.77,3.47-1.65,5.13-2.75,24.17-17.19,61.77-74.13,68.76-87.56.81-1.61,1.34-2.69,1.34-4.03,0-2.95-2.42-4.56-5.64-4.56-2.96,0-6.45,1.34-8.87,4.56-7.25,9.4-56.67,83.54-66.34,83.54-3.49,0-4.56-2.69-4.56-7.25,0-14.23,12.09-45.93,12.09-69.03,0-18.8-9.94-27.4-21.75-27.4-25.79,0-46.2,39.21-57.22,60.43,5.91-20.41,12.09-43.24,15.31-63.65.27-2.42.81-5.11.81-7.52,0-9.67-4.03-20.15-17.73-20.15-27.93,0-70.64,84.88-77.9,99.11,2.96-12.09,6.45-23.91,10.74-36.26l5.38-16.11c.53-.81.53-1.61.53-2.14,0-4.84-6.44-7.25-13.43-7.25-6.45,0-13.43,2.14-15.05,6.18-1.12,2.81-2.36,6.29-3.64,10.17-14.26,18.82-68.07,88.93-76.96,88.93-2.42,0-3.5-2.68-3.5-6.98,0-21.22,23.91-84.07,26.06-90.52,4.56-13.69-8.06-20.95-20.15-14.23-2.14,2.15-4.56,5.64-11.01,17.46-5.1-18.53-17.73-27.13-36.52-19.34-7.52,3.16-15.09,10.09-21.79,18.89-.92.54-1.76,1.3-2.39,2.33-14.24,22.02-58.82,70.9-83.8,70.9-13.69,0-18-13.96-18-27.13,0-6.72,1.08-13.43,2.69-18,22.29-5.37,51.57-11.55,63.66-33.3,2.41-4.56,3.76-9.4,3.76-14.24,0-17.46-16.65-24.71-29.55-24.71-38.68,0-70.1,50.76-70.1,86.76,0,23.63,11.55,46.46,38.94,46.46,2.88,0,5.75-.32,8.62-.81-24.8,23.56-51.64,76.85-57.25,87.86,2.96-12.09,6.45-23.91,10.75-36.26l5.37-16.11c.53-.81.53-1.61.53-2.14,0-4.84-6.44-7.25-13.43-7.25-6.45,0-13.43,2.14-15.05,6.18-1.12,2.81-2.36,6.29-3.64,10.17-14.26,18.82-68.07,88.93-76.96,88.93-2.42,0-3.5-2.68-3.5-6.98,0-21.22,23.91-84.07,26.06-90.52.67-2.02.93-3.87.92-5.58,3.65,3.37,8.07,5.31,13.15,5.31,4.7,0,8.39-2.69,8.39-9.74,0-101.76,62.8-190.41,85.97-285.78l43.99-10.74c16.46-4.03,34.59-8.4,52.05-8.4,12.09,0,17.13,4.7,17.13,10.41s-4.37,12.42-11.42,17.8c-4.7,3.36-6.38,7.05-6.38,10.41,0,4.36,3.36,7.73,7.73,7.73,2.35,0,4.36-1.01,6.72-2.35,14.78-10.74,22.83-24.52,22.83-36.94,0-16.46-13.43-28.55-41.97-28.55-61.45,0-175.63,49.71-216.6,49.71h-3.02c-4.37,0-7.73,5.37-7.73,10.74,0,4.37,2.35,8.06,7.73,8.06,26.19,0,63.47-10.75,89.66-17.8-8.69,31.44-31.94,83.15-51.08,134.15.49-3.89.73-7.72.73-11.46,0-33.57-19.61-59.63-57.48-59.63-2.95,0-5.64,0-8.59.27-27.45,2.6-54.67,23.58-79.12,53.87-3.55-12.53-16.46-21.84-40.18-21.84-61.46,0-176.31,50.37-217.61,50.37h-2.69c-4.03,0-7.38,4.7-7.38,10.07,0,5.04,2.35,8.74,8.73,8.74,26.53-1.68,62.46-11.42,88.66-17.8-6.05,22.16-19.81,54.4-33.92,89.66-13.1,3.36-62.8,19.14-90.67,19.14-12.42,0-20.15-3.02-20.15-10.75,0-5.37,4.37-13.1,11.42-18.13,4.7-3.36,6.38-7.05,6.38-10.07,0-4.36-3.36-7.38-8.06-7.38-2.01,0-4.37.33-6.38,2.01-15.11,10.41-22.84,24.52-22.84,36.6,0,16.46,13.43,28.88,41.64,28.88,21.49,0,49.37-5.71,78.25-13.77-18.47,47.35-35.6,107.13-35.6,144.41,0,4.36.33,8.73,1.01,12.42,1.01,6.38,7.73,9.07,14.78,9.07,8.06,0,17.47-3.7,17.8-8.06,3.36-55.41,23.84-119.89,44.66-170.26,40.3-12.09,77.57-23.85,97.05-23.85h1.68c4.36,0,8.05-5.04,8.05-10.41,0-4.03-2.68-8.06-8.05-8.06-25.86,0-62.46,10.75-88.66,17.13,12.09-29.22,23.51-58.77,30.56-88.66,27.54-6.72,69.51-19.81,96.04-19.81,12.43,0,17.47,4.7,17.47,10.74s-4.7,12.76-11.75,18.13c-4.37,3.36-6.38,7.06-6.38,10.07,0,3.37,2.02,6.09,5.08,7.18-37.5,64.46-63.06,144.94-63.06,193.11,0,25.79,7.25,42.17,23.91,42.17h1.61c11.96-.71,55.33-38.07,85.46-67.94-1.4,5.79-2.18,11.43-2.18,16.64,0,16.92,9.67,26.05,19.07,26.05,15.04,0,33.04-19.87,46.47-38.94-2.15,10.21-3.5,20.15-3.5,29.28,0,19.07,6.18,33.57,23.1,33.57,11.98,0,47.02-37.94,71.66-68.07-2.78,13-4.75,26.29-4.75,37.18s.53,20.69,11.55,20.69c4.3,0,9.13-2.15,11.54-6.45,7.25-12.63,12.89-26.59,20.42-38.41,7.79-15.05,48.88-84.87,55.6-84.87.54,0,.81.8.81,1.88,0,5.37-22.83,67.15-22.83,104.48,0,9.47,1.34,17.89,5.86,21.71-50.38,24.32-93.82,86.77-93.82,149.72,0,38.14,15.58,75.48,59.35,75.48,26.82,0,55.15-15.97,71.45-36.54,2.56,1.54,5.31,2.42,8.07,2.42,15.04,0,33.04-19.88,46.47-38.94-2.15,10.21-3.5,20.14-3.5,29.28,0,19.07,6.18,33.57,23.1,33.57,12.63,0,50.93-42.21,75.62-72.96-2.18,15.33-3.34,29.65-3.34,42.33,0,18.53,2.41,33.3,7.78,42.71,2.42,2.95,5.1,4.3,7.52,4.3,4.56,0,8.32-4.3,8.32-8.86,0-1.34-.26-2.69-1.34-4.3-1.61-3.22-2.15-8.32-2.15-14.5,0-25.52,10.47-68.49,12.63-76.01,17.73,12.36,20.95,56.4,52.38,69.3,1.61.54,3.22.81,4.83.81,17.62,0,46.76-28.84,67.75-54.48-.17,1.98-.31,3.95-.31,5.86,0,23.64,11.55,46.47,38.94,46.47,39.75,0,79.5-49.15,102.33-78.96,1.34-1.61,2.15-3.22,2.15-4.83,0-3.5-3.23-6.18-6.45-6.18ZM1180.17,577.08c2.14-.53,4.03-.8,5.91-.8,6.17,0,10.47,4.03,10.47,9.67,0,17.73-31.16,27.13-48.62,31.15,5.91-15.85,15.31-34.11,32.24-40.02ZM795.63,249.05c2.14-.54,4.03-.81,5.91-.81,6.17,0,10.47,4.03,10.47,9.67,0,17.73-31.16,27.13-48.62,31.16,5.91-15.85,15.31-34.11,32.24-40.02ZM564.05,210.66c15.04-15.58,32.23-22.56,47.27-22.56,23.37,0,42.17,17.19,42.17,46.47,0,52.11-55.6,128.66-173.78,130.8,15.58-40.02,46.2-115.5,84.34-154.71ZM605.43,423.12c-1.88,3.23-38.94,51.3-48.08,51.3-1.34,0-1.88-.81-1.88-2.95,0-19.61,22.29-74.94,41.36-74.94,3.23,0,6.45,2.14,9.14,6.45,2.68,4.3,2.15,15.85-.54,20.14ZM615.63,401.09c-5.1-18.53-17.73-27.13-36.52-19.34-8.62,3.62-17.3,12.16-24.67,22.85-.19.18-.43.32-.61.52-6.71,9.94-90.25,90.25-99.91,90.78-2.69,0-3.76-3.49-3.76-9.4,0-25.52,19.6-95.08,24.44-107.7,91.65-1.33,149.07-43.01,174.91-88.29-7.89,25.46-13.18,49.06-13.18,67.79,0,9.08,1.55,17.2,4.37,23.69-3.94-1.5-9.04-1.15-14.07,1.64-2.14,2.15-4.56,5.64-11.01,17.46ZM1009.05,549.69c22.29-57.48,72.52-178.88,134.83-178.88,3.86,0,7.39.58,10.63,1.59,1.71,1.13,3.63,2.03,5.89,2.54,12.18,6.87,18.66,21.75,18.66,40.19,0,52.38-51.84,132.42-170.02,134.56ZM1033.37,329.09c7.79-15.05,48.88-84.87,55.6-84.87.54,0,.81.8.81,1.88,0,5.37-22.83,67.15-22.83,104.48,0,12.89,2.42,23.91,12.09,23.91,3.22,0,6.45-1.34,8.06-3.76,3.22-4.3,47.27-97.23,60.97-97.23,2.42,0,4.03,3.76,4.03,9.94,0,14.77-7.78,41.09-7.78,61.77,0,4.52.46,8.93,1.42,12.98-3.31-.48-6.75-.8-10.43-.8-28.59,0-55.4,17.05-79.19,43.9-.57.47-1.1,1.01-1.53,1.69-.08.13-.2.28-.28.41-5.67,6.57-11.16,13.7-16.47,21.28-19.71,22.76-48.68,49.22-67.06,49.22-13.69,0-18-13.96-18-27.13,0-6.72,1.08-13.43,2.69-18,22.29-5.37,51.57-11.55,63.66-33.3,2.41-4.56,3.76-9.4,3.76-14.24,0-7.69-3.23-13.39-7.95-17.37,6.31-11.63,11.63-24.05,18.44-34.75ZM997.17,373.25c1.22.41,2.58.7,4.24.7.34,0,.7-.1,1.05-.13,3.94,1.35,6.46,4.7,6.46,9.01,0,17.73-31.16,27.13-48.62,31.16,5.91-15.85,15.31-34.11,32.24-40.02,1.67-.42,3.16-.62,4.64-.72ZM899.59,271.61c3.22,0,6.44,2.14,9.13,6.45,2.68,4.3,2.15,15.85-.54,20.14-1.88,3.23-38.94,51.3-48.08,51.3-1.34,0-1.88-.81-1.88-2.95,0-19.61,22.29-74.94,41.36-74.94ZM839.53,319.79c-1.08,5-1.72,9.87-1.72,14.41,0,16.92,9.67,26.05,19.07,26.05,15.04,0,33.04-19.87,46.47-38.94-2.15,10.21-3.5,20.15-3.5,29.28,0,19.07,6.18,33.57,23.1,33.57,11.98,0,47.02-37.94,71.66-68.07-2.78,13-4.75,26.29-4.75,37.18,0,1.2.01,2.37.04,3.52-24.75,1.93-46.14,24.2-57.64,49.26-11.16,15.47-55.55,81.26-64.66,81.26-3.49,0-4.56-2.69-4.56-7.25,0-14.23,12.09-45.93,12.09-69.03,0-18.8-9.94-27.39-21.75-27.39-25.79,0-46.2,39.21-57.21,60.43,5.9-20.41,12.08-43.24,15.31-63.65.27-2.42.81-5.11.81-7.52,0-8.15-2.94-16.8-12.05-19.34,14.07-8.51,27.44-20.86,39.31-33.76ZM866.41,626.24c-1.88,3.22-38.94,51.3-48.08,51.3-1.34,0-1.88-.81-1.88-2.96,0-19.6,22.29-74.94,41.36-74.94,3.22,0,6.44,2.15,9.13,6.45,2.68,4.3,2.15,15.85-.54,20.15ZM962.01,609.77c-14.51,19.15-67.94,88.72-76.79,88.72-2.42,0-3.5-2.68-3.5-6.98,0-21.22,23.91-84.07,26.06-90.51,4.56-13.69-8.06-20.95-20.15-14.23-2.14,2.14-4.56,5.64-11.01,17.46-5.1-18.53-17.73-27.13-36.52-19.34-21.76,9.13-44.05,49.42-44.05,77.36,0,5.72,1.17,10.47,2.99,14.36-.58.34-1.1.73-1.39,1.23-11.28,15.58-30.62,27.39-50.23,27.39-32.77,0-43.78-28.47-43.78-57.75,0-16.11,3.22-32.23,7.79-44.85,20.14-52.65,69.3-101.79,102.87-101.79,5.64,0,10.74,1.34,15.31,4.3,6.98,4.83,7.52,13.16,12.36,13.16,4.3,0,8.59-5.91,8.59-9.94v-1.34c-6.18-14.78-22.29-20.42-37.33-20.42-8.66,0-17.41,1.41-26.08,4,10.53-20.16,46.11-92.17,58.17-92.17,2.41,0,4.03,3.76,4.03,9.94,0,14.77-7.78,41.09-7.78,61.77,0,15.58,4.56,30.35,21.49,30.35,5.1,0,10.47-1.88,15.31-5.11,13.36-9.5,30.8-31.13,44.93-50.86.4,23.18,11.99,45.22,38.91,45.22,16.98,0,33.94-9,49.6-21.59-22.88,44.34-40.17,95.68-49.77,141.64ZM1048.27,574.94c1.34-.27,2.42-.54,3.22-.54,1.61,0,2.15.54,2.15,1.34,0,1.07-.81,2.14-2.15,3.76-12.08,14.23-31.96,16.92-48.88,21.22,12.89-9.4,29.82-22.29,45.66-25.78Z"/>
    <path class="cls-2" d="M968.77,765.51c-13.65,0-26.8-6.49-36.09-17.81-1.31-1.6-2.49-3.31-3.52-5.1-2.28-3.99-4.24-8.33-5.89-13.06-23.43,19.6-34.69,19.6-42.09,19.6-18.62,0-37.34-8.47-48.82-26.63-3.86,1.23-7.73,2.03-11.6,2.43-23.84,21.33-55.41,34.41-85.18,34.41-58.5,0-96.29-44.13-96.29-112.41,0-40.26,14.29-81.39,38.03-115.71-3.93-1.82-7.9-4.33-11.54-7.81-25.67,22.59-37.42,22.59-45.59,22.59-18.62,0-37.34-8.47-48.82-26.63-5.73,1.82-11.48,2.72-17.26,2.72-12.13,0-24.44-4.57-34.43-13.06-43.55,36.92-59.56,37.88-65.72,38.25-.73.05-1.47.07-2.2.07h-1.61c-10.16,0-60.84-3.82-60.84-79.11,0-23.45,4.95-52.44,13.68-83.29-8.89,2.51-18.19,5.28-27.09,7.95-14.08,36.43-32.45,92.31-35.48,142.25-2.16,28.27-29.13,42.76-54.67,42.76s-47.19-16.29-51.17-39.69c-1.02-5.69-1.55-12.16-1.55-18.74,0-29.09,7.95-64.56,16.82-95.07-8.09.92-15.59,1.38-22.53,1.38-54.28,0-78.58-33.06-78.58-65.82,0-24.9,14.14-49.63,37.88-66.37,5.95-4.47,15.3-9.19,28.27-9.19,1.2,0,2.39.05,3.55.13-1.87-5.1-2.88-10.68-2.88-16.59,0-25.92,19.89-47.01,44.32-47.01h2.69c13.1,0,49.21-11.01,78.22-19.85,49.22-15,100.11-30.52,139.39-30.52,14.19,0,26.97,2.44,37.9,7.02,21.89-20.2,44.39-32.69,67.25-37.31-2.43-5.59-3.76-11.81-3.76-18.4,0-26.29,20.04-47.68,44.66-47.68h3.02c12.95,0,48.74-10.82,77.5-19.52,49.07-14.84,99.81-30.19,139.11-30.19,54.51,0,78.91,32.89,78.91,65.49,0,24.88-13.86,49.23-38.05,66.81-1.1.8-2.23,1.53-3.4,2.2-3.78,2.16-12.64,7.21-25.03,7.21-23.2,0-42.33-17.78-44.47-40.43-1.97.47-3.93.95-5.84,1.42l-22.88,5.59c-7.2,24.08-16.25,47.51-25.57,70.43,11.43-5.45,23.83-8.56,36.87-8.56,27.08,0,49.41,13.53,59.94,34.07,3.65-2.36,7.38-4.35,11.18-5.94,23.2-9.61,41.14-5.48,52.27-.18,17.54-6.41,36.58-3.63,50.45,7.88,4.79,3.97,8.64,8.68,11.46,13.89,9.52-10.22,24.08-16.14,40.89-16.14,4.71,0,9.1.45,13.16,1.29,26.11-32.7,45.43-38.62,61.51-38.62,22.73,0,40.98,12.36,49.48,31.56,3.02-.44,6.13-.67,9.34-.67,20.9,0,41.98,11.35,52.26,33.32,8.87-11.02,22.75-17.74,37.18-17.74,23.87,0,42.58,18.23,42.58,41.5,0,10.07-3.54,17.15-5.25,20.55-5.3,10.2-32.67,53.92-60.1,82.9,3.31,10.37,5.04,21.61,5.04,33.35,0,32.85-14.03,72.79-43,107.11,29.17,1.4,52.21,18.69,59.89,43.27,1.04-.07,2.09-.11,3.15-.11,23.93,0,43.38,19.34,43.38,43.12,0,6.96-1.77,17.34-10.09,27.72-35.32,46.07-78.53,93.02-131.33,93.02-21.45,0-39.78-7.9-53.06-21.55-29,23.7-46.25,23.7-53.33,23.7-5.6,0-11.17-.91-16.56-2.72-.77-.26-1.53-.54-2.3-.85-3.81-1.57-7.36-3.36-10.67-5.33-1.69,23.7-21.3,42.47-45.14,42.47ZM744.88,668.1c.18,0,1.01.17,2.53.17,3.58,0,7.8-1.55,11.72-4.07-.02-.66-.03-1.31-.03-1.97,0-38.97,27.93-94.23,65.5-110.9-5.12-2.45-10.32-6.33-15.12-12.27-15.19,6.36-47.75,35.42-63.57,76.75-3.32,9.18-5.35,20.95-5.35,31.66,0,13.45,3.27,19.55,4.27,20.64h.04ZM1273.55,625.64c-.08.13-.66.99-1.7,2.44.6-.78,1.17-1.59,1.7-2.44ZM896.85,547.27c11.52,0,22.67,3.79,31.66,11.25,2.37,1.97,4.51,4.11,6.41,6.41,3.69-13.31,7.84-26.58,12.4-39.62-11.77-2.2-22.31-7.03-31.18-14.03-5.82,5.83-11.3,10.57-16.4,14.19-.3.21-.59.42-.89.62-6.43,4.29-13.29,7.41-20.32,9.27-3.05,4.35-6.8,8.26-11.15,11.44,4.05,1.02,7.61,2.38,10.67,3.84,6.18-2.26,12.54-3.37,18.8-3.37ZM1141.34,407.89c-8.42,1.65-33.62,13.73-71.65,93.75,53.07-20.44,72.45-63.89,72.45-86.51,0-3.26-.38-5.65-.79-7.23ZM232.19,351.72s-.02.02-.03.03c.01,0,.02-.01.03-.03ZM217.47,350.62h0ZM222.88,330.64h0,0ZM257.27,313.46c1.35,3.73,2.21,7.71,2.52,11.86,10.38-2.42,20.74-5.22,28.75-7.46.46-1.14.92-2.28,1.38-3.41.6-1.49,1.2-2.97,1.8-4.45-9.73,1.7-19.26,2.98-28.13,3.55-2.12.12-4.25.09-6.32-.09ZM611.32,225.03c-2.3,0-10.59.81-20.69,11.28l-.1.1c-18.94,19.47-36.78,51.9-50.78,81.73,53.6-18.92,76.8-59.41,76.8-83.58,0-9.53-3.28-9.53-5.23-9.53ZM1266.22,301.05c-.06.08-.12.16-.19.25.07-.09.13-.17.19-.25ZM418.97,279.18c-.69,2.32-1.4,4.64-2.12,6.95,8.88-1.44,17.62-2.41,25.95-2.66,1.61-3.19,3.25-6.35,4.91-9.48-.09-.68-.17-1.35-.24-2.03-9.84,2.3-19.81,4.93-28.51,7.23ZM1004.62,254.32s0,.01,0,.02c0,0,0-.01,0-.02ZM1004.67,254.24s-.02.04-.03.05c.01-.01.03-.03.03-.05Z"/>
  </g>
  <path class="cls-1" d="M1247.86,602.87c-2.15,0-4.3,1.08-5.64,3.22-14.24,22.02-58.82,70.91-83.8,70.91-13.69,0-18-13.97-18-27.13,0-6.72,1.08-13.43,2.69-18,22.29-5.37,51.57-11.55,63.66-33.3,2.41-4.57,3.76-9.4,3.76-14.24,0-17.46-16.65-24.71-29.55-24.71-26.38,0-49.36,23.62-61.32,50.06-15.61,20.7-61.29,72.96-73.53,72.96-15.31,0-15.58-57.21-37.33-70.37,18.8-4.83,58.82-16.11,58.82-40.29,0-6.45-4.03-11.01-12.63-11.01-17.46,0-39.48,13.7-58.55,26.86,3.23-11.28,6.18-20.69,7.79-24.44,124.09-.81,186.67-87.03,186.67-147.72,0-16.95-5-31.92-14.92-42.46,1.75-.77,3.47-1.65,5.13-2.75,24.17-17.19,61.77-74.13,68.76-87.56.81-1.61,1.34-2.69,1.34-4.03,0-2.95-2.42-4.56-5.64-4.56-2.96,0-6.45,1.34-8.87,4.56-7.25,9.4-56.67,83.54-66.34,83.54-3.49,0-4.56-2.69-4.56-7.25,0-14.23,12.09-45.93,12.09-69.03,0-18.8-9.94-27.4-21.75-27.4-25.79,0-46.2,39.21-57.22,60.43,5.91-20.41,12.09-43.24,15.31-63.65.27-2.42.81-5.11.81-7.52,0-9.67-4.03-20.15-17.73-20.15-27.93,0-70.64,84.88-77.9,99.11,2.96-12.09,6.45-23.91,10.74-36.26l5.38-16.11c.53-.81.53-1.61.53-2.14,0-4.84-6.44-7.25-13.43-7.25-6.45,0-13.43,2.14-15.05,6.18-1.12,2.81-2.36,6.29-3.64,10.17-14.26,18.82-68.07,88.93-76.96,88.93-2.42,0-3.5-2.68-3.5-6.98,0-21.22,23.91-84.07,26.06-90.52,4.56-13.69-8.06-20.95-20.15-14.23-2.14,2.15-4.56,5.64-11.01,17.46-5.1-18.53-17.73-27.13-36.52-19.34-7.52,3.16-15.09,10.09-21.79,18.89-.92.54-1.76,1.3-2.39,2.33-14.24,22.02-58.82,70.9-83.8,70.9-13.69,0-18-13.96-18-27.13,0-6.72,1.08-13.43,2.69-18,22.29-5.37,51.57-11.55,63.66-33.3,2.41-4.56,3.76-9.4,3.76-14.24,0-17.46-16.65-24.71-29.55-24.71-38.68,0-70.1,50.76-70.1,86.76,0,23.63,11.55,46.46,38.94,46.46,2.88,0,5.75-.32,8.62-.81-24.8,23.56-51.64,76.85-57.25,87.86,2.96-12.09,6.45-23.91,10.75-36.26l5.37-16.11c.53-.81.53-1.61.53-2.14,0-4.84-6.44-7.25-13.43-7.25-6.45,0-13.43,2.14-15.05,6.18-1.12,2.81-2.36,6.29-3.64,10.17-14.26,18.82-68.07,88.93-76.96,88.93-2.42,0-3.5-2.68-3.5-6.98,0-21.22,23.91-84.07,26.06-90.52.67-2.02.93-3.87.92-5.58,3.65,3.37,8.07,5.31,13.15,5.31,4.7,0,8.39-2.69,8.39-9.74,0-101.76,62.8-190.41,85.97-285.78l43.99-10.74c16.46-4.03,34.59-8.4,52.05-8.4,12.09,0,17.13,4.7,17.13,10.41s-4.37,12.42-11.42,17.8c-4.7,3.36-6.38,7.05-6.38,10.41,0,4.36,3.36,7.73,7.73,7.73,2.35,0,4.36-1.01,6.72-2.35,14.78-10.74,22.83-24.52,22.83-36.94,0-16.46-13.43-28.55-41.97-28.55-61.45,0-175.63,49.71-216.6,49.71h-3.02c-4.37,0-7.73,5.37-7.73,10.74,0,4.37,2.35,8.06,7.73,8.06,26.19,0,63.47-10.75,89.66-17.8-8.69,31.44-31.94,83.15-51.08,134.15.49-3.89.73-7.72.73-11.46,0-33.57-19.61-59.63-57.48-59.63-2.95,0-5.64,0-8.59.27-27.45,2.6-54.67,23.58-79.12,53.87-3.55-12.53-16.46-21.84-40.18-21.84-61.46,0-176.31,50.37-217.61,50.37h-2.69c-4.03,0-7.38,4.7-7.38,10.07,0,5.04,2.35,8.74,8.73,8.74,26.53-1.68,62.46-11.42,88.66-17.8-6.05,22.16-19.81,54.4-33.92,89.66-13.1,3.36-62.8,19.14-90.67,19.14-12.42,0-20.15-3.02-20.15-10.75,0-5.37,4.37-13.1,11.42-18.13,4.7-3.36,6.38-7.05,6.38-10.07,0-4.36-3.36-7.38-8.06-7.38-2.01,0-4.37.33-6.38,2.01-15.11,10.41-22.84,24.52-22.84,36.6,0,16.46,13.43,28.88,41.64,28.88,21.49,0,49.37-5.71,78.25-13.77-18.47,47.35-35.6,107.13-35.6,144.41,0,4.36.33,8.73,1.01,12.42,1.01,6.38,7.73,9.07,14.78,9.07,8.06,0,17.47-3.7,17.8-8.06,3.36-55.41,23.84-119.89,44.66-170.26,40.3-12.09,77.57-23.85,97.05-23.85h1.68c4.36,0,8.05-5.04,8.05-10.41,0-4.03-2.68-8.06-8.05-8.06-25.86,0-62.46,10.75-88.66,17.13,12.09-29.22,23.51-58.77,30.56-88.66,27.54-6.72,69.51-19.81,96.04-19.81,12.43,0,17.47,4.7,17.47,10.74s-4.7,12.76-11.75,18.13c-4.37,3.36-6.38,7.06-6.38,10.07,0,3.37,2.02,6.09,5.08,7.18-37.5,64.46-63.06,144.94-63.06,193.11,0,25.79,7.25,42.17,23.91,42.17h1.61c11.96-.71,55.33-38.07,85.46-67.94-1.4,5.79-2.18,11.43-2.18,16.64,0,16.92,9.67,26.05,19.07,26.05,15.04,0,33.04-19.87,46.47-38.94-2.15,10.21-3.5,20.15-3.5,29.28,0,19.07,6.18,33.57,23.1,33.57,11.98,0,47.02-37.94,71.66-68.07-2.78,13-4.75,26.29-4.75,37.18s.53,20.69,11.55,20.69c4.3,0,9.13-2.15,11.54-6.45,7.25-12.63,12.89-26.59,20.42-38.41,7.79-15.05,48.88-84.87,55.6-84.87.54,0,.81.8.81,1.88,0,5.37-22.83,67.15-22.83,104.48,0,9.47,1.34,17.89,5.86,21.71-50.38,24.32-93.82,86.77-93.82,149.72,0,38.14,15.58,75.48,59.35,75.48,26.82,0,55.15-15.97,71.45-36.54,2.56,1.54,5.31,2.42,8.07,2.42,15.04,0,33.04-19.88,46.47-38.94-2.15,10.21-3.5,20.14-3.5,29.28,0,19.07,6.18,33.57,23.1,33.57,12.63,0,50.93-42.21,75.62-72.96-2.18,15.33-3.34,29.65-3.34,42.33,0,18.53,2.41,33.3,7.78,42.71,2.42,2.95,5.1,4.3,7.52,4.3,4.56,0,8.32-4.3,8.32-8.86,0-1.34-.26-2.69-1.34-4.3-1.61-3.22-2.15-8.32-2.15-14.5,0-25.52,10.47-68.49,12.63-76.01,17.73,12.36,20.95,56.4,52.38,69.3,1.61.54,3.22.81,4.83.81,17.62,0,46.76-28.84,67.75-54.48-.17,1.98-.31,3.95-.31,5.86,0,23.64,11.55,46.47,38.94,46.47,39.75,0,79.5-49.15,102.33-78.96,1.34-1.61,2.15-3.22,2.15-4.83,0-3.5-3.23-6.18-6.45-6.18ZM1180.17,577.08c2.14-.53,4.03-.8,5.91-.8,6.17,0,10.47,4.03,10.47,9.67,0,17.73-31.16,27.13-48.62,31.15,5.91-15.85,15.31-34.11,32.24-40.02ZM795.63,249.05c2.14-.54,4.03-.81,5.91-.81,6.17,0,10.47,4.03,10.47,9.67,0,17.73-31.16,27.13-48.62,31.16,5.91-15.85,15.31-34.11,32.24-40.02ZM564.05,210.66c15.04-15.58,32.23-22.56,47.27-22.56,23.37,0,42.17,17.19,42.17,46.47,0,52.11-55.6,128.66-173.78,130.8,15.58-40.02,46.2-115.5,84.34-154.71ZM605.43,423.12c-1.88,3.23-38.94,51.3-48.08,51.3-1.34,0-1.88-.81-1.88-2.95,0-19.61,22.29-74.94,41.36-74.94,3.23,0,6.45,2.14,9.14,6.45,2.68,4.3,2.15,15.85-.54,20.14ZM615.63,401.09c-5.1-18.53-17.73-27.13-36.52-19.34-8.62,3.62-17.3,12.16-24.67,22.85-.19.18-.43.32-.61.52-6.71,9.94-90.25,90.25-99.91,90.78-2.69,0-3.76-3.49-3.76-9.4,0-25.52,19.6-95.08,24.44-107.7,91.65-1.33,149.07-43.01,174.91-88.29-7.89,25.46-13.18,49.06-13.18,67.79,0,9.08,1.55,17.2,4.37,23.69-3.94-1.5-9.04-1.15-14.07,1.64-2.14,2.15-4.56,5.64-11.01,17.46ZM1009.05,549.69c22.29-57.48,72.52-178.88,134.83-178.88,3.86,0,7.39.58,10.63,1.59,1.71,1.13,3.63,2.03,5.89,2.54,12.18,6.87,18.66,21.75,18.66,40.19,0,52.38-51.84,132.42-170.02,134.56ZM1033.37,329.09c7.79-15.05,48.88-84.87,55.6-84.87.54,0,.81.8.81,1.88,0,5.37-22.83,67.15-22.83,104.48,0,12.89,2.42,23.91,12.09,23.91,3.22,0,6.45-1.34,8.06-3.76,3.22-4.3,47.27-97.23,60.97-97.23,2.42,0,4.03,3.76,4.03,9.94,0,14.77-7.78,41.09-7.78,61.77,0,4.52.46,8.93,1.42,12.98-3.31-.48-6.75-.8-10.43-.8-28.59,0-55.4,17.05-79.19,43.9-.57.47-1.1,1.01-1.53,1.69-.08.13-.2.28-.28.41-5.67,6.57-11.16,13.7-16.47,21.28-19.71,22.76-48.68,49.22-67.06,49.22-13.69,0-18-13.96-18-27.13,0-6.72,1.08-13.43,2.69-18,22.29-5.37,51.57-11.55,63.66-33.3,2.41-4.56,3.76-9.4,3.76-14.24,0-7.69-3.23-13.39-7.95-17.37,6.31-11.63,11.63-24.05,18.44-34.75ZM997.17,373.25c1.22.41,2.58.7,4.24.7.34,0,.7-.1,1.05-.13,3.94,1.35,6.46,4.7,6.46,9.01,0,17.73-31.16,27.13-48.62,31.16,5.91-15.85,15.31-34.11,32.24-40.02,1.67-.42,3.16-.62,4.64-.72ZM899.59,271.61c3.22,0,6.44,2.14,9.13,6.45,2.68,4.3,2.15,15.85-.54,20.14-1.88,3.23-38.94,51.3-48.08,51.3-1.34,0-1.88-.81-1.88-2.95,0-19.61,22.29-74.94,41.36-74.94ZM839.53,319.79c-1.08,5-1.72,9.87-1.72,14.41,0,16.92,9.67,26.05,19.07,26.05,15.04,0,33.04-19.87,46.47-38.94-2.15,10.21-3.5,20.15-3.5,29.28,0,19.07,6.18,33.57,23.1,33.57,11.98,0,47.02-37.94,71.66-68.07-2.78,13-4.75,26.29-4.75,37.18,0,1.2.01,2.37.04,3.52-24.75,1.93-46.14,24.2-57.64,49.26-11.16,15.47-55.55,81.26-64.66,81.26-3.49,0-4.56-2.69-4.56-7.25,0-14.23,12.09-45.93,12.09-69.03,0-18.8-9.94-27.39-21.75-27.39-25.79,0-46.2,39.21-57.21,60.43,5.9-20.41,12.08-43.24,15.31-63.65.27-2.42.81-5.11.81-7.52,0-8.15-2.94-16.8-12.05-19.34,14.07-8.51,27.44-20.86,39.31-33.76ZM866.41,626.24c-1.88,3.22-38.94,51.3-48.08,51.3-1.34,0-1.88-.81-1.88-2.96,0-19.6,22.29-74.94,41.36-74.94,3.22,0,6.44,2.15,9.13,6.45,2.68,4.3,2.15,15.85-.54,20.15ZM962.01,609.77c-14.51,19.15-67.94,88.72-76.79,88.72-2.42,0-3.5-2.68-3.5-6.98,0-21.22,23.91-84.07,26.06-90.51,4.56-13.69-8.06-20.95-20.15-14.23-2.14,2.14-4.56,5.64-11.01,17.46-5.1-18.53-17.73-27.13-36.52-19.34-21.76,9.13-44.05,49.42-44.05,77.36,0,5.72,1.17,10.47,2.99,14.36-.58.34-1.1.73-1.39,1.23-11.28,15.58-30.62,27.39-50.23,27.39-32.77,0-43.78-28.47-43.78-57.75,0-16.11,3.22-32.23,7.79-44.85,20.14-52.65,69.3-101.79,102.87-101.79,5.64,0,10.74,1.34,15.31,4.3,6.98,4.83,7.52,13.16,12.36,13.16,4.3,0,8.59-5.91,8.59-9.94v-1.34c-6.18-14.78-22.29-20.42-37.33-20.42-8.66,0-17.41,1.41-26.08,4,10.53-20.16,46.11-92.17,58.17-92.17,2.41,0,4.03,3.76,4.03,9.94,0,14.77-7.78,41.09-7.78,61.77,0,15.58,4.56,30.35,21.49,30.35,5.1,0,10.47-1.88,15.31-5.11,13.36-9.5,30.8-31.13,44.93-50.86.4,23.18,11.99,45.22,38.91,45.22,16.98,0,33.94-9,49.6-21.59-22.88,44.34-40.17,95.68-49.77,141.64ZM1048.27,574.94c1.34-.27,2.42-.54,3.22-.54,1.61,0,2.15.54,2.15,1.34,0,1.07-.81,2.14-2.15,3.76-12.08,14.23-31.96,16.92-48.88,21.22,12.89-9.4,29.82-22.29,45.66-25.78Z"/>
</svg>